<svg xmlns="http://www.w3.org/2000/svg" width="780" height="560" viewBox="0 0 780 560">
<rect width="100%" height="100%" fill="white"/>
<text x="70" y="32" font-family="sans-serif" font-size="20">Locked holdout calibration</text>
<line x1="70" y1="490" x2="710" y2="490" stroke="#111"/>
<line x1="70" y1="70" x2="70" y2="490" stroke="#111"/>
<line x1="70.0" y1="490" x2="70.0" y2="495" stroke="#111"/>
<text x="70.0" y="512" text-anchor="middle" font-family="sans-serif" font-size="12">0.0</text>
<line x1="65" y1="490.0" x2="70" y2="490.0" stroke="#111"/>
<text x="60" y="494.0" text-anchor="end" font-family="sans-serif" font-size="12">0.0</text>
<line x1="198.0" y1="490" x2="198.0" y2="495" stroke="#111"/>
<text x="198.0" y="512" text-anchor="middle" font-family="sans-serif" font-size="12">0.2</text>
<line x1="65" y1="406.0" x2="70" y2="406.0" stroke="#111"/>
<text x="60" y="410.0" text-anchor="end" font-family="sans-serif" font-size="12">0.2</text>
<line x1="326.0" y1="490" x2="326.0" y2="495" stroke="#111"/>
<text x="326.0" y="512" text-anchor="middle" font-family="sans-serif" font-size="12">0.4</text>
<line x1="65" y1="322.0" x2="70" y2="322.0" stroke="#111"/>
<text x="60" y="326.0" text-anchor="end" font-family="sans-serif" font-size="12">0.4</text>
<line x1="454.0" y1="490" x2="454.0" y2="495" stroke="#111"/>
<text x="454.0" y="512" text-anchor="middle" font-family="sans-serif" font-size="12">0.6</text>
<line x1="65" y1="238.0" x2="70" y2="238.0" stroke="#111"/>
<text x="60" y="242.0" text-anchor="end" font-family="sans-serif" font-size="12">0.6</text>
<line x1="582.0" y1="490" x2="582.0" y2="495" stroke="#111"/>
<text x="582.0" y="512" text-anchor="middle" font-family="sans-serif" font-size="12">0.8</text>
<line x1="65" y1="154.0" x2="70" y2="154.0" stroke="#111"/>
<text x="60" y="158.0" text-anchor="end" font-family="sans-serif" font-size="12">0.8</text>
<line x1="710.0" y1="490" x2="710.0" y2="495" stroke="#111"/>
<text x="710.0" y="512" text-anchor="middle" font-family="sans-serif" font-size="12">1.0</text>
<line x1="65" y1="70.0" x2="70" y2="70.0" stroke="#111"/>
<text x="60" y="74.0" text-anchor="end" font-family="sans-serif" font-size="12">1.0</text>
<line x1="70" y1="490" x2="710" y2="70" stroke="#777" stroke-dasharray="6 5"/>
<circle cx="150.3" cy="451.8" r="3" fill="#2563eb"/>
<circle cx="230.9" cy="393.1" r="3" fill="#2563eb"/>
<circle cx="316.6" cy="458.3" r="3" fill="#2563eb"/>
<circle cx="362.4" cy="363.2" r="3" fill="#2563eb"/>
<circle cx="409.9" cy="260.2" r="3" fill="#2563eb"/>
<circle cx="459.2" cy="236.4" r="3" fill="#2563eb"/>
<circle cx="498.6" cy="180.9" r="3" fill="#2563eb"/>
<circle cx="537.3" cy="180.9" r="3" fill="#2563eb"/>
<circle cx="569.8" cy="141.3" r="3" fill="#2563eb"/>
<circle cx="613.2" cy="85.8" r="3" fill="#2563eb"/>
<polyline points="150.3,451.8 230.9,393.1 316.6,458.3 362.4,363.2 409.9,260.2 459.2,236.4 498.6,180.9 537.3,180.9 569.8,141.3 613.2,85.8" fill="none" stroke="#2563eb" stroke-width="2"/>
<text x="250" y="52" font-family="sans-serif" font-size="11" fill="#2563eb">boosted_tree / price_derivatives</text>
<circle cx="164.0" cy="451.1" r="3" fill="#dc2626"/>
<circle cx="240.4" cy="387.0" r="3" fill="#dc2626"/>
<circle cx="345.7" cy="434.5" r="3" fill="#dc2626"/>
<circle cx="389.4" cy="373.3" r="3" fill="#dc2626"/>
<circle cx="431.7" cy="288.1" r="3" fill="#dc2626"/>
<circle cx="477.9" cy="241.1" r="3" fill="#dc2626"/>
<circle cx="528.4" cy="207.3" r="3" fill="#dc2626"/>
<circle cx="553.4" cy="133.4" r="3" fill="#dc2626"/>
<circle cx="573.1" cy="155.6" r="3" fill="#dc2626"/>
<circle cx="601.1" cy="78.1" r="3" fill="#dc2626"/>
<polyline points="164.0,451.1 240.4,387.0 345.7,434.5 389.4,373.3 431.7,288.1 477.9,241.1 528.4,207.3 553.4,133.4 573.1,155.6 601.1,78.1" fill="none" stroke="#dc2626" stroke-width="2"/>
<text x="250" y="67" font-family="sans-serif" font-size="11" fill="#dc2626">boosted_tree / price_liquidity</text>
<circle cx="151.3" cy="451.1" r="3" fill="#059669"/>
<circle cx="239.1" cy="418.7" r="3" fill="#059669"/>
<circle cx="329.2" cy="410.8" r="3" fill="#059669"/>
<circle cx="375.3" cy="371.1" r="3" fill="#059669"/>
<circle cx="426.3" cy="276.0" r="3" fill="#059669"/>
<circle cx="479.0" cy="228.5" r="3" fill="#059669"/>
<circle cx="529.3" cy="220.6" r="3" fill="#059669"/>
<circle cx="558.2" cy="141.3" r="3" fill="#059669"/>
<circle cx="584.9" cy="165.1" r="3" fill="#059669"/>
<circle cx="624.2" cy="70.0" r="3" fill="#059669"/>
<polyline points="151.3,451.1 239.1,418.7 329.2,410.8 375.3,371.1 426.3,276.0 479.0,228.5 529.3,220.6 558.2,141.3 584.9,165.1 624.2,70.0" fill="none" stroke="#059669" stroke-width="2"/>
<text x="250" y="82" font-family="sans-serif" font-size="11" fill="#059669">boosted_tree / price_only</text>
<circle cx="143.8" cy="458.9" r="3" fill="#7c3aed"/>
<circle cx="236.9" cy="418.7" r="3" fill="#7c3aed"/>
<circle cx="294.7" cy="442.5" r="3" fill="#7c3aed"/>
<circle cx="340.9" cy="355.3" r="3" fill="#7c3aed"/>
<circle cx="385.9" cy="299.8" r="3" fill="#7c3aed"/>
<circle cx="433.4" cy="228.5" r="3" fill="#7c3aed"/>
<circle cx="487.7" cy="165.1" r="3" fill="#7c3aed"/>
<circle cx="533.0" cy="165.1" r="3" fill="#7c3aed"/>
<circle cx="574.5" cy="141.3" r="3" fill="#7c3aed"/>
<circle cx="646.3" cy="77.9" r="3" fill="#7c3aed"/>
<polyline points="143.8,458.9 236.9,418.7 294.7,442.5 340.9,355.3 385.9,299.8 433.4,228.5 487.7,165.1 533.0,165.1 574.5,141.3 646.3,77.9" fill="none" stroke="#7c3aed" stroke-width="2"/>
<text x="250" y="97" font-family="sans-serif" font-size="11" fill="#7c3aed">elastic_net / price_derivatives</text>
<circle cx="148.9" cy="466.7" r="3" fill="#d97706"/>
<circle cx="251.5" cy="402.8" r="3" fill="#d97706"/>
<circle cx="309.9" cy="442.5" r="3" fill="#d97706"/>
<circle cx="364.7" cy="363.2" r="3" fill="#d97706"/>
<circle cx="407.2" cy="291.9" r="3" fill="#d97706"/>
<circle cx="452.7" cy="228.5" r="3" fill="#d97706"/>
<circle cx="507.1" cy="204.7" r="3" fill="#d97706"/>
<circle cx="552.1" cy="133.4" r="3" fill="#d97706"/>
<circle cx="594.5" cy="141.3" r="3" fill="#d97706"/>
<circle cx="654.4" cy="77.9" r="3" fill="#d97706"/>
<polyline points="148.9,466.7 251.5,402.8 309.9,442.5 364.7,363.2 407.2,291.9 452.7,228.5 507.1,204.7 552.1,133.4 594.5,141.3 654.4,77.9" fill="none" stroke="#d97706" stroke-width="2"/>
<text x="250" y="112" font-family="sans-serif" font-size="11" fill="#d97706">elastic_net / price_liquidity</text>
<circle cx="135.4" cy="474.4" r="3" fill="#0891b2"/>
<circle cx="223.8" cy="402.8" r="3" fill="#0891b2"/>
<circle cx="283.2" cy="450.4" r="3" fill="#0891b2"/>
<circle cx="335.1" cy="331.5" r="3" fill="#0891b2"/>
<circle cx="383.6" cy="291.9" r="3" fill="#0891b2"/>
<circle cx="435.4" cy="236.4" r="3" fill="#0891b2"/>
<circle cx="494.1" cy="188.9" r="3" fill="#0891b2"/>
<circle cx="541.3" cy="173.0" r="3" fill="#0891b2"/>
<circle cx="586.7" cy="117.5" r="3" fill="#0891b2"/>
<circle cx="653.9" cy="85.8" r="3" fill="#0891b2"/>
<polyline points="135.4,474.4 223.8,402.8 283.2,450.4 335.1,331.5 383.6,291.9 435.4,236.4 494.1,188.9 541.3,173.0 586.7,117.5 653.9,85.8" fill="none" stroke="#0891b2" stroke-width="2"/>
<text x="250" y="127" font-family="sans-serif" font-size="11" fill="#0891b2">elastic_net / price_only</text>
<text x="390.0" y="548" text-anchor="middle" font-family="sans-serif" font-size="14">Mean predicted probability</text>
<text x="18" y="280.0" transform="rotate(-90 18 280.0)" text-anchor="middle" font-family="sans-serif" font-size="14">Observed expansion frequency</text>
</svg>